<?xml version="1.0" encoding="UTF-8" standalone="no"?>
<!DOCTYPE svg PUBLIC "-//W3C//DTD SVG 1.1//EN"
 "http://www.w3.org/Graphics/SVG/1.1/DTD/svg11.dtd">
<!-- Generated by graphviz version 2.38.0 (20140413.2041)
 -->
<!-- Title: Gemfile Pages: 1 -->
<svg width="2464pt" height="548pt"
 viewBox="0.00 0.00 2463.90 548.00" xmlns="http://www.w3.org/2000/svg" xmlns:xlink="http://www.w3.org/1999/xlink">
<g id="graph0" class="graph" transform="scale(1 1) rotate(0) translate(4 544)">
<title>Gemfile</title>
<polygon fill="white" stroke="none" points="-4,4 -4,-544 2459.9,-544 2459.9,4 -4,4"/>
<!-- default -->
<g id="node1" class="node"><title>default</title>
<polygon fill="#b9b9d5" stroke="black" points="1299.04,-540 1238.96,-540 1234.96,-536 1234.96,-504 1295.04,-504 1299.04,-508 1299.04,-540"/>
<polyline fill="none" stroke="black" points="1295.04,-536 1234.96,-536 "/>
<polyline fill="none" stroke="black" points="1295.04,-536 1295.04,-504 "/>
<polyline fill="none" stroke="black" points="1295.04,-536 1299.04,-540 "/>
<text text-anchor="middle" x="1267" y="-517.2" font-family="Arial, Helvetica, SansSerif" font-size="16.00">default</text>
</g>
<!-- middleman -->
<g id="node2" class="node"><title>middleman</title>
<ellipse fill="#b9b9d5" stroke="black" cx="1392" cy="-522" rx="53.2228" ry="18"/>
<text text-anchor="middle" x="1392" y="-517.8" font-family="Arial, Helvetica, SansSerif" font-size="14.00">middleman</text>
</g>
<!-- default&#45;&gt;middleman -->
<g id="edge1" class="edge"><title>default&#45;&gt;middleman</title>
<path fill="none" stroke="black" d="M1299.23,-522C1308.91,-522 1318.59,-522 1328.27,-522"/>
<polygon fill="black" stroke="black" points="1328.37,-525.5 1338.37,-522 1328.37,-518.5 1328.37,-525.5"/>
</g>
<!-- middleman&#45;core -->
<g id="node3" class="node"><title>middleman&#45;core</title>
<ellipse fill="none" stroke="black" cx="762" cy="-378" rx="73.5189" ry="18"/>
<text text-anchor="middle" x="762" y="-373.8" font-family="Arial, Helvetica, SansSerif" font-size="14.00">middleman&#45;core</text>
</g>
<!-- middleman&#45;&gt;middleman&#45;core -->
<g id="edge2" class="edge"><title>middleman&#45;&gt;middleman&#45;core</title>
<path fill="none" stroke="black" d="M1349.55,-511.054C1339.54,-508.724 1328.89,-506.262 1319,-504 1139.71,-463.008 927.671,-415.762 824.569,-392.869"/>
<polygon fill="black" stroke="black" points="825.157,-389.415 814.637,-390.665 823.64,-396.249 825.157,-389.415"/>
</g>
<!-- middleman&#45;sprockets -->
<g id="node4" class="node"><title>middleman&#45;sprockets</title>
<ellipse fill="none" stroke="black" cx="612" cy="-450" rx="94.3002" ry="18"/>
<text text-anchor="middle" x="612" y="-445.8" font-family="Arial, Helvetica, SansSerif" font-size="14.00">middleman&#45;sprockets</text>
</g>
<!-- middleman&#45;&gt;middleman&#45;sprockets -->
<g id="edge3" class="edge"><title>middleman&#45;&gt;middleman&#45;sprockets</title>
<path fill="none" stroke="black" d="M1351.29,-510.352C1340.83,-507.938 1329.55,-505.614 1319,-504 1204.66,-486.508 877.159,-466.134 711.1,-456.537"/>
<polygon fill="black" stroke="black" points="711.07,-453.03 700.885,-455.949 710.667,-460.018 711.07,-453.03"/>
</g>
<!-- haml -->
<g id="node5" class="node"><title>haml</title>
<ellipse fill="none" stroke="black" cx="301" cy="-450" rx="29.0514" ry="18"/>
<text text-anchor="middle" x="301" y="-445.8" font-family="Arial, Helvetica, SansSerif" font-size="14.00">haml</text>
</g>
<!-- middleman&#45;&gt;haml -->
<g id="edge4" class="edge"><title>middleman&#45;&gt;haml</title>
<path fill="none" stroke="black" d="M1351.32,-510.125C1340.86,-507.715 1329.57,-505.45 1319,-504 957.148,-454.368 862.469,-491.706 498,-468 442.969,-464.421 379.43,-458.639 339.73,-454.829"/>
<polygon fill="black" stroke="black" points="339.972,-451.336 329.681,-453.858 339.298,-458.304 339.972,-451.336"/>
</g>
<!-- sass -->
<g id="node6" class="node"><title>sass</title>
<ellipse fill="none" stroke="black" cx="2059" cy="-306" rx="28.0822" ry="18"/>
<text text-anchor="middle" x="2059" y="-301.8" font-family="Arial, Helvetica, SansSerif" font-size="14.00">sass</text>
</g>
<!-- middleman&#45;&gt;sass -->
<g id="edge5" class="edge"><title>middleman&#45;&gt;sass</title>
<path fill="none" stroke="black" d="M2293,-449C2307.23,-407.839 2285.21,-388.175 2252,-360 2208.03,-322.699 2139.97,-311.486 2097.53,-308.213"/>
<polygon fill="black" stroke="black" points="2097.53,-304.706 2087.32,-307.541 2097.07,-311.691 2097.53,-304.706"/>
</g>
<!-- compass&#45;import&#45;once -->
<g id="node7" class="node"><title>compass&#45;import&#45;once</title>
<ellipse fill="none" stroke="black" cx="2137" cy="-378" rx="95.2605" ry="18"/>
<text text-anchor="middle" x="2137" y="-373.8" font-family="Arial, Helvetica, SansSerif" font-size="14.00">compass&#45;import&#45;once</text>
</g>
<!-- middleman&#45;&gt;compass&#45;import&#45;once -->
<g id="edge6" class="edge"><title>middleman&#45;&gt;compass&#45;import&#45;once</title>
<path fill="none" stroke="black" d="M2293,-449C2304.71,-415.118 2270.66,-397.626 2231.41,-388.599"/>
<polygon fill="black" stroke="black" points="2231.85,-385.115 2221.35,-386.482 2230.41,-391.965 2231.85,-385.115"/>
<path fill="none" stroke="black" d="M1445.07,-519.492C1636.22,-513.731 2279.04,-491.384 2293,-451"/>
</g>
<!-- compass -->
<g id="node8" class="node"><title>compass</title>
<ellipse fill="none" stroke="black" cx="1802" cy="-450" rx="45.4873" ry="18"/>
<text text-anchor="middle" x="1802" y="-445.8" font-family="Arial, Helvetica, SansSerif" font-size="14.00">compass</text>
</g>
<!-- middleman&#45;&gt;compass -->
<g id="edge7" class="edge"><title>middleman&#45;&gt;compass</title>
<path fill="none" stroke="black" d="M1438.63,-513.038C1516.12,-499.808 1670.81,-473.399 1751.06,-459.697"/>
<polygon fill="black" stroke="black" points="1751.67,-463.144 1760.94,-458.011 1750.49,-456.244 1751.67,-463.144"/>
</g>
<!-- uglifier -->
<g id="node9" class="node"><title>uglifier</title>
<ellipse fill="none" stroke="black" cx="1489" cy="-450" rx="36.3165" ry="18"/>
<text text-anchor="middle" x="1489" y="-445.8" font-family="Arial, Helvetica, SansSerif" font-size="14.00">uglifier</text>
</g>
<!-- middleman&#45;&gt;uglifier -->
<g id="edge8" class="edge"><title>middleman&#45;&gt;uglifier</title>
<path fill="none" stroke="black" d="M1413.53,-505.465C1427.43,-495.431 1445.67,-482.268 1460.74,-471.396"/>
<polygon fill="black" stroke="black" points="1463.12,-473.99 1469.18,-465.3 1459.03,-468.314 1463.12,-473.99"/>
</g>
<!-- coffee&#45;script -->
<g id="node10" class="node"><title>coffee&#45;script</title>
<ellipse fill="none" stroke="black" cx="1273" cy="-450" rx="58.2311" ry="18"/>
<text text-anchor="middle" x="1273" y="-445.8" font-family="Arial, Helvetica, SansSerif" font-size="14.00">coffee&#45;script</text>
</g>
<!-- middleman&#45;&gt;coffee&#45;script -->
<g id="edge9" class="edge"><title>middleman&#45;&gt;coffee&#45;script</title>
<path fill="none" stroke="black" d="M1366.47,-505.983C1349.33,-495.902 1326.54,-482.496 1307.76,-471.444"/>
<polygon fill="black" stroke="black" points="1309.29,-468.287 1298.9,-466.233 1305.74,-474.32 1309.29,-468.287"/>
</g>
<!-- execjs -->
<g id="node11" class="node"><title>execjs</title>
<ellipse fill="none" stroke="black" cx="1393" cy="-378" rx="35.3476" ry="18"/>
<text text-anchor="middle" x="1393" y="-373.8" font-family="Arial, Helvetica, SansSerif" font-size="14.00">execjs</text>
</g>
<!-- middleman&#45;&gt;execjs -->
<g id="edge10" class="edge"><title>middleman&#45;&gt;execjs</title>
<path fill="none" stroke="black" d="M1392.12,-503.871C1392.29,-479.67 1392.6,-435.211 1392.81,-406.393"/>
<polygon fill="black" stroke="black" points="1396.31,-406.214 1392.88,-396.189 1389.31,-406.164 1396.31,-406.214"/>
</g>
<!-- kramdown -->
<g id="node12" class="node"><title>kramdown</title>
<ellipse fill="none" stroke="black" cx="2405" cy="-450" rx="50.8" ry="18"/>
<text text-anchor="middle" x="2405" y="-445.8" font-family="Arial, Helvetica, SansSerif" font-size="14.00">kramdown</text>
</g>
<!-- middleman&#45;&gt;kramdown -->
<g id="edge11" class="edge"><title>middleman&#45;&gt;kramdown</title>
<path fill="none" stroke="black" d="M1445.33,-520.761C1588.3,-519.517 1991.83,-512.048 2324,-468 2333.73,-466.71 2344.03,-464.899 2353.9,-462.936"/>
<polygon fill="black" stroke="black" points="2354.91,-466.302 2364,-460.852 2353.5,-459.446 2354.91,-466.302"/>
</g>
<!-- bundler -->
<g id="node13" class="node"><title>bundler</title>
<ellipse fill="none" stroke="black" cx="762" cy="-306" rx="39.7164" ry="18"/>
<text text-anchor="middle" x="762" y="-301.8" font-family="Arial, Helvetica, SansSerif" font-size="14.00">bundler</text>
</g>
<!-- middleman&#45;core&#45;&gt;bundler -->
<g id="edge12" class="edge"><title>middleman&#45;core&#45;&gt;bundler</title>
<path fill="none" stroke="black" d="M762,-359.697C762,-351.983 762,-342.712 762,-334.112"/>
<polygon fill="black" stroke="black" points="765.5,-334.104 762,-324.104 758.5,-334.104 765.5,-334.104"/>
</g>
<!-- rack -->
<g id="node14" class="node"><title>rack</title>
<ellipse fill="none" stroke="black" cx="846" cy="-162" rx="27" ry="18"/>
<text text-anchor="middle" x="846" y="-157.8" font-family="Arial, Helvetica, SansSerif" font-size="14.00">rack</text>
</g>
<!-- middleman&#45;core&#45;&gt;rack -->
<g id="edge13" class="edge"><title>middleman&#45;core&#45;&gt;rack</title>
<path fill="none" stroke="black" d="M832.406,-372.579C901.604,-366.591 1000.2,-353.096 1024,-324 1034.13,-311.615 1034.47,-300.099 1024,-288 951.12,-203.777 848.88,-336.223 776,-252 765.53,-239.901 768.877,-230.327 776,-216 784.261,-199.384 800.494,-186.586 815.249,-177.732"/>
<polygon fill="black" stroke="black" points="817.154,-180.677 824.161,-172.73 813.728,-174.573 817.154,-180.677"/>
</g>
<!-- tilt -->
<g id="node15" class="node"><title>tilt</title>
<ellipse fill="none" stroke="black" cx="27" cy="-234" rx="27" ry="18"/>
<text text-anchor="middle" x="27" y="-229.8" font-family="Arial, Helvetica, SansSerif" font-size="14.00">tilt</text>
</g>
<!-- middleman&#45;core&#45;&gt;tilt -->
<g id="edge14" class="edge"><title>middleman&#45;core&#45;&gt;tilt</title>
<path fill="none" stroke="black" d="M694.235,-370.954C545.982,-357.692 205.045,-326.985 193,-324 173.853,-319.254 170.144,-314.742 152,-307"/>
</g>
<!-- erubis -->
<g id="node16" class="node"><title>erubis</title>
<ellipse fill="none" stroke="black" cx="876" cy="-306" rx="34.3874" ry="18"/>
<text text-anchor="middle" x="876" y="-301.8" font-family="Arial, Helvetica, SansSerif" font-size="14.00">erubis</text>
</g>
<!-- middleman&#45;core&#45;&gt;erubis -->
<g id="edge15" class="edge"><title>middleman&#45;core&#45;&gt;erubis</title>
<path fill="none" stroke="black" d="M787.868,-361.116C804.987,-350.605 827.508,-336.776 845.5,-325.728"/>
<polygon fill="black" stroke="black" points="847.752,-328.452 854.442,-320.237 844.089,-322.487 847.752,-328.452"/>
</g>
<!-- hooks -->
<g id="node17" class="node"><title>hooks</title>
<ellipse fill="none" stroke="black" cx="649" cy="-306" rx="33.9117" ry="18"/>
<text text-anchor="middle" x="649" y="-301.8" font-family="Arial, Helvetica, SansSerif" font-size="14.00">hooks</text>
</g>
<!-- middleman&#45;core&#45;&gt;hooks -->
<g id="edge16" class="edge"><title>middleman&#45;core&#45;&gt;hooks</title>
<path fill="none" stroke="black" d="M736.359,-361.116C719.391,-350.605 697.066,-336.776 679.233,-325.728"/>
<polygon fill="black" stroke="black" points="680.713,-322.528 670.369,-320.237 677.026,-328.479 680.713,-322.528"/>
</g>
<!-- capybara -->
<g id="node18" class="node"><title>capybara</title>
<ellipse fill="none" stroke="black" cx="1254" cy="-306" rx="46.4736" ry="18"/>
<text text-anchor="middle" x="1254" y="-301.8" font-family="Arial, Helvetica, SansSerif" font-size="14.00">capybara</text>
</g>
<!-- middleman&#45;core&#45;&gt;capybara -->
<g id="edge17" class="edge"><title>middleman&#45;core&#45;&gt;capybara</title>
<path fill="none" stroke="black" d="M823.814,-368.205C921.354,-354.328 1109.29,-327.589 1201.02,-314.537"/>
<polygon fill="black" stroke="black" points="1201.78,-317.964 1211.19,-313.091 1200.8,-311.034 1201.78,-317.964"/>
</g>
<!-- thor -->
<g id="node19" class="node"><title>thor</title>
<ellipse fill="none" stroke="black" cx="977" cy="-306" rx="27" ry="18"/>
<text text-anchor="middle" x="977" y="-301.8" font-family="Arial, Helvetica, SansSerif" font-size="14.00">thor</text>
</g>
<!-- middleman&#45;core&#45;&gt;thor -->
<g id="edge18" class="edge"><title>middleman&#45;core&#45;&gt;thor</title>
<path fill="none" stroke="black" d="M806.378,-363.55C840.342,-353.123 888.284,-338.118 930,-324 934.587,-322.448 939.408,-320.764 944.143,-319.08"/>
<polygon fill="black" stroke="black" points="945.413,-322.343 953.639,-315.666 943.044,-315.756 945.413,-322.343"/>
</g>
<!-- activesupport -->
<g id="node20" class="node"><title>activesupport</title>
<ellipse fill="none" stroke="black" cx="433" cy="-162" rx="62.9118" ry="18"/>
<text text-anchor="middle" x="433" y="-157.8" font-family="Arial, Helvetica, SansSerif" font-size="14.00">activesupport</text>
</g>
<!-- middleman&#45;core&#45;&gt;activesupport -->
<g id="edge19" class="edge"><title>middleman&#45;core&#45;&gt;activesupport</title>
<path fill="none" stroke="black" d="M557,-233C547.05,-204.385 518.21,-187.125 490.845,-176.906"/>
<polygon fill="black" stroke="black" points="491.856,-173.552 481.261,-173.578 489.56,-180.165 491.856,-173.552"/>
<path fill="none" stroke="black" d="M696.859,-369.483C662.977,-362.585 622.923,-349.357 595,-324 563.16,-295.085 571.126,-275.624 557,-235"/>
</g>
<!-- padrino&#45;helpers -->
<g id="node21" class="node"><title>padrino&#45;helpers</title>
<ellipse fill="none" stroke="black" cx="285" cy="-306" rx="71.6154" ry="18"/>
<text text-anchor="middle" x="285" y="-301.8" font-family="Arial, Helvetica, SansSerif" font-size="14.00">padrino&#45;helpers</text>
</g>
<!-- middleman&#45;core&#45;&gt;padrino&#45;helpers -->
<g id="edge20" class="edge"><title>middleman&#45;core&#45;&gt;padrino&#45;helpers</title>
<path fill="none" stroke="black" d="M697.832,-369.082C621.3,-359.427 489.573,-342.14 377,-324 368.262,-322.592 359.075,-321.013 350.027,-319.4"/>
<polygon fill="black" stroke="black" points="350.364,-315.904 339.901,-317.571 349.12,-322.793 350.364,-315.904"/>
</g>
<!-- listen -->
<g id="node22" class="node"><title>listen</title>
<ellipse fill="none" stroke="black" cx="1610" cy="-306" rx="30.5053" ry="18"/>
<text text-anchor="middle" x="1610" y="-301.8" font-family="Arial, Helvetica, SansSerif" font-size="14.00">listen</text>
</g>
<!-- middleman&#45;core&#45;&gt;listen -->
<g id="edge21" class="edge"><title>middleman&#45;core&#45;&gt;listen</title>
<path fill="none" stroke="black" d="M830.677,-371.331C1000.17,-357.34 1434.39,-321.496 1569.35,-310.356"/>
<polygon fill="black" stroke="black" points="1569.96,-313.817 1579.64,-309.506 1569.39,-306.841 1569.96,-313.817"/>
</g>
<!-- i18n -->
<g id="node23" class="node"><title>i18n</title>
<ellipse fill="none" stroke="black" cx="557" cy="-90" rx="27" ry="18"/>
<text text-anchor="middle" x="557" y="-85.8" font-family="Arial, Helvetica, SansSerif" font-size="14.00">i18n</text>
</g>
<!-- middleman&#45;core&#45;&gt;i18n -->
<g id="edge22" class="edge"><title>middleman&#45;core&#45;&gt;i18n</title>
<path fill="none" stroke="black" d="M557,-233C541.307,-206.137 541.876,-190.188 557,-163"/>
</g>
<!-- middleman&#45;sprockets&#45;&gt;middleman&#45;core -->
<g id="edge23" class="edge"><title>middleman&#45;sprockets&#45;&gt;middleman&#45;core</title>
<path fill="none" stroke="black" d="M646.037,-433.116C667.993,-422.87 696.704,-409.471 720.065,-398.57"/>
<polygon fill="black" stroke="black" points="721.803,-401.621 729.384,-394.221 718.842,-395.278 721.803,-401.621"/>
</g>
<!-- sprockets -->
<g id="node24" class="node"><title>sprockets</title>
<ellipse fill="none" stroke="black" cx="445" cy="-306" rx="47.9013" ry="18"/>
<text text-anchor="middle" x="445" y="-301.8" font-family="Arial, Helvetica, SansSerif" font-size="14.00">sprockets</text>
</g>
<!-- middleman&#45;sprockets&#45;&gt;sprockets -->
<g id="edge24" class="edge"><title>middleman&#45;sprockets&#45;&gt;sprockets</title>
<path fill="none" stroke="black" d="M608.08,-431.723C602.782,-411.988 591.545,-379.868 571,-360 550.141,-339.829 520.465,-326.836 495.152,-318.765"/>
<polygon fill="black" stroke="black" points="495.917,-315.341 485.333,-315.806 493.898,-322.043 495.917,-315.341"/>
</g>
<!-- sprockets&#45;sass -->
<g id="node25" class="node"><title>sprockets&#45;sass</title>
<ellipse fill="none" stroke="black" cx="282" cy="-378" rx="69.1583" ry="18"/>
<text text-anchor="middle" x="282" y="-373.8" font-family="Arial, Helvetica, SansSerif" font-size="14.00">sprockets&#45;sass</text>
</g>
<!-- middleman&#45;sprockets&#45;&gt;sprockets&#45;sass -->
<g id="edge25" class="edge"><title>middleman&#45;sprockets&#45;&gt;sprockets&#45;sass</title>
<path fill="none" stroke="black" d="M551.473,-436.161C492.46,-423.643 403.159,-404.7 343.737,-392.096"/>
<polygon fill="black" stroke="black" points="344.244,-388.625 333.735,-389.974 342.791,-395.473 344.244,-388.625"/>
</g>
<!-- sprockets&#45;helpers -->
<g id="node26" class="node"><title>sprockets&#45;helpers</title>
<ellipse fill="none" stroke="black" cx="471" cy="-378" rx="79.8006" ry="18"/>
<text text-anchor="middle" x="471" y="-373.8" font-family="Arial, Helvetica, SansSerif" font-size="14.00">sprockets&#45;helpers</text>
</g>
<!-- middleman&#45;sprockets&#45;&gt;sprockets&#45;helpers -->
<g id="edge26" class="edge"><title>middleman&#45;sprockets&#45;&gt;sprockets&#45;helpers</title>
<path fill="none" stroke="black" d="M579.652,-432.941C559.538,-422.955 533.495,-410.026 511.948,-399.329"/>
<polygon fill="black" stroke="black" points="513.225,-396.055 502.712,-394.743 510.112,-402.325 513.225,-396.055"/>
</g>
<!-- haml&#45;&gt;tilt -->
<g id="edge27" class="edge"><title>haml&#45;&gt;tilt</title>
<path fill="none" stroke="black" d="M152,-305C116.955,-290.047 79.0926,-267.925 54.3329,-252.567"/>
<polygon fill="black" stroke="black" points="56.1656,-249.585 45.8333,-247.241 52.4486,-255.517 56.1656,-249.585"/>
<path fill="none" stroke="black" d="M274.853,-441.732C250.882,-433.9 215.755,-419.32 193,-396 162.585,-364.83 192.057,-324.092 152,-307"/>
</g>
<!-- compass&#45;import&#45;once&#45;&gt;sass -->
<g id="edge28" class="edge"><title>compass&#45;import&#45;once&#45;&gt;sass</title>
<path fill="none" stroke="black" d="M2118.12,-360.055C2107.35,-350.39 2093.76,-338.194 2082.33,-327.934"/>
<polygon fill="black" stroke="black" points="2084.6,-325.269 2074.82,-321.195 2079.92,-330.479 2084.6,-325.269"/>
</g>
<!-- compass&#45;&gt;sass -->
<g id="edge29" class="edge"><title>compass&#45;&gt;sass</title>
<path fill="none" stroke="black" d="M1837.2,-438.462C1865.82,-429.203 1906.75,-414.357 1940,-396 1975.4,-376.456 2012.07,-347.478 2035.17,-327.946"/>
<polygon fill="black" stroke="black" points="2037.72,-330.373 2043.05,-321.213 2033.17,-325.053 2037.72,-330.373"/>
</g>
<!-- compass&#45;&gt;compass&#45;import&#45;once -->
<g id="edge31" class="edge"><title>compass&#45;&gt;compass&#45;import&#45;once</title>
<path fill="none" stroke="black" d="M1841.41,-440.764C1896.47,-429.259 1997.34,-408.183 2065.76,-393.886"/>
<polygon fill="black" stroke="black" points="2066.54,-397.299 2075.61,-391.828 2065.1,-390.447 2066.54,-397.299"/>
</g>
<!-- compass&#45;core -->
<g id="node27" class="node"><title>compass&#45;core</title>
<ellipse fill="none" stroke="black" cx="1616" cy="-378" rx="65.7841" ry="18"/>
<text text-anchor="middle" x="1616" y="-373.8" font-family="Arial, Helvetica, SansSerif" font-size="14.00">compass&#45;core</text>
</g>
<!-- compass&#45;&gt;compass&#45;core -->
<g id="edge30" class="edge"><title>compass&#45;&gt;compass&#45;core</title>
<path fill="none" stroke="black" d="M1770.03,-436.967C1740.44,-425.831 1696.09,-409.141 1662.57,-396.526"/>
<polygon fill="black" stroke="black" points="1663.58,-393.165 1652.98,-392.918 1661.11,-399.716 1663.58,-393.165"/>
</g>
<!-- chunky_png -->
<g id="node28" class="node"><title>chunky_png</title>
<ellipse fill="none" stroke="black" cx="1862" cy="-378" rx="57.6011" ry="18"/>
<text text-anchor="middle" x="1862" y="-373.8" font-family="Arial, Helvetica, SansSerif" font-size="14.00">chunky_png</text>
</g>
<!-- compass&#45;&gt;chunky_png -->
<g id="edge32" class="edge"><title>compass&#45;&gt;chunky_png</title>
<path fill="none" stroke="black" d="M1815.92,-432.765C1823.38,-424.056 1832.73,-413.147 1841.06,-403.435"/>
<polygon fill="black" stroke="black" points="1843.89,-405.504 1847.74,-395.633 1838.58,-400.948 1843.89,-405.504"/>
</g>
<!-- rb&#45;fsevent -->
<g id="node29" class="node"><title>rb&#45;fsevent</title>
<ellipse fill="none" stroke="black" cx="1743" cy="-234" rx="49.355" ry="18"/>
<text text-anchor="middle" x="1743" y="-229.8" font-family="Arial, Helvetica, SansSerif" font-size="14.00">rb&#45;fsevent</text>
</g>
<!-- compass&#45;&gt;rb&#45;fsevent -->
<g id="edge33" class="edge"><title>compass&#45;&gt;rb&#45;fsevent</title>
<path fill="none" stroke="black" d="M1743,-305C1737.73,-291.515 1737.36,-275.419 1738.48,-262.064"/>
<polygon fill="black" stroke="black" points="1741.96,-262.376 1739.63,-252.043 1735.01,-261.579 1741.96,-262.376"/>
</g>
<!-- rb&#45;inotify -->
<g id="node30" class="node"><title>rb&#45;inotify</title>
<ellipse fill="none" stroke="black" cx="1610" cy="-234" rx="44.0337" ry="18"/>
<text text-anchor="middle" x="1610" y="-229.8" font-family="Arial, Helvetica, SansSerif" font-size="14.00">rb&#45;inotify</text>
</g>
<!-- compass&#45;&gt;rb&#45;inotify -->
<g id="edge34" class="edge"><title>compass&#45;&gt;rb&#45;inotify</title>
<path fill="none" stroke="black" d="M1743,-305C1735.58,-286.039 1687.79,-264.183 1651.6,-250.007"/>
<polygon fill="black" stroke="black" points="1652.8,-246.72 1642.21,-246.399 1650.29,-253.254 1652.8,-246.72"/>
<path fill="none" stroke="black" d="M1794.68,-432.044C1783.3,-405.51 1760.8,-352.497 1743,-307"/>
</g>
<!-- uglifier&#45;&gt;execjs -->
<g id="edge35" class="edge"><title>uglifier&#45;&gt;execjs</title>
<path fill="none" stroke="black" d="M1469.11,-434.496C1455.11,-424.292 1436.2,-410.499 1420.73,-399.217"/>
<polygon fill="black" stroke="black" points="1422.68,-396.31 1412.54,-393.246 1418.56,-401.966 1422.68,-396.31"/>
</g>
<!-- json -->
<g id="node31" class="node"><title>json</title>
<ellipse fill="none" stroke="black" cx="1489" cy="-90" rx="27" ry="18"/>
<text text-anchor="middle" x="1489" y="-85.8" font-family="Arial, Helvetica, SansSerif" font-size="14.00">json</text>
</g>
<!-- uglifier&#45;&gt;json -->
<g id="edge36" class="edge"><title>uglifier&#45;&gt;json</title>
<path fill="none" stroke="black" d="M1489,-431.733C1489,-374.194 1489,-188.658 1489,-118.351"/>
<polygon fill="black" stroke="black" points="1492.5,-118.094 1489,-108.094 1485.5,-118.094 1492.5,-118.094"/>
</g>
<!-- coffee&#45;script&#45;&gt;execjs -->
<g id="edge38" class="edge"><title>coffee&#45;script&#45;&gt;execjs</title>
<path fill="none" stroke="black" d="M1299.04,-433.811C1317.49,-423.05 1342.32,-408.564 1361.82,-397.187"/>
<polygon fill="black" stroke="black" points="1363.77,-400.104 1370.64,-392.042 1360.24,-394.058 1363.77,-400.104"/>
</g>
<!-- coffee&#45;script&#45;source -->
<g id="node32" class="node"><title>coffee&#45;script&#45;source</title>
<ellipse fill="none" stroke="black" cx="1230" cy="-378" rx="87.7076" ry="18"/>
<text text-anchor="middle" x="1230" y="-373.8" font-family="Arial, Helvetica, SansSerif" font-size="14.00">coffee&#45;script&#45;source</text>
</g>
<!-- coffee&#45;script&#45;&gt;coffee&#45;script&#45;source -->
<g id="edge37" class="edge"><title>coffee&#45;script&#45;&gt;coffee&#45;script&#45;source</title>
<path fill="none" stroke="black" d="M1262.59,-432.055C1257.59,-423.922 1251.5,-413.998 1245.94,-404.943"/>
<polygon fill="black" stroke="black" points="1248.83,-402.964 1240.61,-396.275 1242.86,-406.628 1248.83,-402.964"/>
</g>
<!-- uber -->
<g id="node33" class="node"><title>uber</title>
<ellipse fill="none" stroke="black" cx="646" cy="-234" rx="27.6147" ry="18"/>
<text text-anchor="middle" x="646" y="-229.8" font-family="Arial, Helvetica, SansSerif" font-size="14.00">uber</text>
</g>
<!-- hooks&#45;&gt;uber -->
<g id="edge39" class="edge"><title>hooks&#45;&gt;uber</title>
<path fill="none" stroke="black" d="M648.258,-287.697C647.928,-279.983 647.531,-270.712 647.162,-262.112"/>
<polygon fill="black" stroke="black" points="650.658,-261.945 646.733,-252.104 643.665,-262.245 650.658,-261.945"/>
</g>
<!-- capybara&#45;&gt;rack -->
<g id="edge42" class="edge"><title>capybara&#45;&gt;rack</title>
<path fill="none" stroke="black" d="M1214.98,-296.094C1203.12,-293.435 1190.04,-290.55 1178,-288 1098.19,-271.094 1074.25,-281.011 998,-252 950.859,-234.065 901.367,-202.296 872.121,-181.964"/>
<polygon fill="black" stroke="black" points="873.912,-178.944 863.72,-176.05 869.882,-184.668 873.912,-178.944"/>
</g>
<!-- nokogiri -->
<g id="node34" class="node"><title>nokogiri</title>
<ellipse fill="none" stroke="black" cx="1351" cy="-162" rx="41.1526" ry="18"/>
<text text-anchor="middle" x="1351" y="-157.8" font-family="Arial, Helvetica, SansSerif" font-size="14.00">nokogiri</text>
</g>
<!-- capybara&#45;&gt;nokogiri -->
<g id="edge40" class="edge"><title>capybara&#45;&gt;nokogiri</title>
<path fill="none" stroke="black" d="M1265.32,-288.433C1282.26,-263.636 1314.32,-216.702 1334.06,-187.806"/>
<polygon fill="black" stroke="black" points="1337,-189.693 1339.76,-179.462 1331.22,-185.745 1337,-189.693"/>
</g>
<!-- mime&#45;types -->
<g id="node35" class="node"><title>mime&#45;types</title>
<ellipse fill="none" stroke="black" cx="1202" cy="-234" rx="55.6112" ry="18"/>
<text text-anchor="middle" x="1202" y="-229.8" font-family="Arial, Helvetica, SansSerif" font-size="14.00">mime&#45;types</text>
</g>
<!-- capybara&#45;&gt;mime&#45;types -->
<g id="edge41" class="edge"><title>capybara&#45;&gt;mime&#45;types</title>
<path fill="none" stroke="black" d="M1241.68,-288.411C1235.42,-279.992 1227.69,-269.585 1220.72,-260.201"/>
<polygon fill="black" stroke="black" points="1223.37,-257.897 1214.6,-251.956 1217.75,-262.071 1223.37,-257.897"/>
</g>
<!-- rack&#45;test -->
<g id="node36" class="node"><title>rack&#45;test</title>
<ellipse fill="none" stroke="black" cx="1062" cy="-234" rx="44.0251" ry="18"/>
<text text-anchor="middle" x="1062" y="-229.8" font-family="Arial, Helvetica, SansSerif" font-size="14.00">rack&#45;test</text>
</g>
<!-- capybara&#45;&gt;rack&#45;test -->
<g id="edge43" class="edge"><title>capybara&#45;&gt;rack&#45;test</title>
<path fill="none" stroke="black" d="M1221.43,-293.125C1188.86,-281.253 1138.67,-262.953 1103.32,-250.065"/>
<polygon fill="black" stroke="black" points="1104.36,-246.72 1093.77,-246.583 1101.97,-253.297 1104.36,-246.72"/>
</g>
<!-- xpath -->
<g id="node37" class="node"><title>xpath</title>
<ellipse fill="none" stroke="black" cx="1412" cy="-234" rx="31.9828" ry="18"/>
<text text-anchor="middle" x="1412" y="-229.8" font-family="Arial, Helvetica, SansSerif" font-size="14.00">xpath</text>
</g>
<!-- capybara&#45;&gt;xpath -->
<g id="edge44" class="edge"><title>capybara&#45;&gt;xpath</title>
<path fill="none" stroke="black" d="M1283.35,-291.998C1310.17,-280.114 1349.84,-262.541 1378.02,-250.053"/>
<polygon fill="black" stroke="black" points="1379.75,-253.116 1387.48,-245.865 1376.91,-246.716 1379.75,-253.116"/>
</g>
<!-- activesupport&#45;&gt;i18n -->
<g id="edge45" class="edge"><title>activesupport&#45;&gt;i18n</title>
<path fill="none" stroke="black" d="M460.212,-145.638C480.243,-134.331 507.437,-118.979 527.899,-107.428"/>
<polygon fill="black" stroke="black" points="529.79,-110.38 536.777,-102.416 526.349,-104.284 529.79,-110.38"/>
</g>
<!-- activesupport&#45;&gt;json -->
<g id="edge46" class="edge"><title>activesupport&#45;&gt;json</title>
<path fill="none" stroke="black" d="M494.418,-158.079C703.903,-148.068 1379.94,-115.359 1426,-108 1435.69,-106.451 1446.04,-104.003 1455.49,-101.442"/>
<polygon fill="black" stroke="black" points="1456.66,-104.75 1465.32,-98.6553 1454.75,-98.0154 1456.66,-104.75"/>
</g>
<!-- tzinfo -->
<g id="node38" class="node"><title>tzinfo</title>
<ellipse fill="none" stroke="black" cx="337" cy="-90" rx="31.4897" ry="18"/>
<text text-anchor="middle" x="337" y="-85.8" font-family="Arial, Helvetica, SansSerif" font-size="14.00">tzinfo</text>
</g>
<!-- activesupport&#45;&gt;tzinfo -->
<g id="edge47" class="edge"><title>activesupport&#45;&gt;tzinfo</title>
<path fill="none" stroke="black" d="M411.216,-145.116C397.25,-134.933 379.013,-121.635 364.113,-110.77"/>
<polygon fill="black" stroke="black" points="365.924,-107.759 355.782,-104.695 361.8,-113.415 365.924,-107.759"/>
</g>
<!-- minitest -->
<g id="node39" class="node"><title>minitest</title>
<ellipse fill="none" stroke="black" cx="449" cy="-90" rx="40.6508" ry="18"/>
<text text-anchor="middle" x="449" y="-85.8" font-family="Arial, Helvetica, SansSerif" font-size="14.00">minitest</text>
</g>
<!-- activesupport&#45;&gt;minitest -->
<g id="edge48" class="edge"><title>activesupport&#45;&gt;minitest</title>
<path fill="none" stroke="black" d="M436.955,-143.697C438.718,-135.983 440.837,-126.712 442.803,-118.112"/>
<polygon fill="black" stroke="black" points="446.274,-118.633 445.09,-108.104 439.45,-117.073 446.274,-118.633"/>
</g>
<!-- thread_safe -->
<g id="node40" class="node"><title>thread_safe</title>
<ellipse fill="none" stroke="black" cx="291" cy="-18" rx="56.632" ry="18"/>
<text text-anchor="middle" x="291" y="-13.8" font-family="Arial, Helvetica, SansSerif" font-size="14.00">thread_safe</text>
</g>
<!-- activesupport&#45;&gt;thread_safe -->
<g id="edge49" class="edge"><title>activesupport&#45;&gt;thread_safe</title>
<path fill="none" stroke="black" d="M374.098,-155.739C342.424,-149.561 305.883,-136.304 286,-108 273.407,-90.0737 276.27,-64.7592 281.346,-45.7086"/>
<polygon fill="black" stroke="black" points="284.701,-46.7072 284.221,-36.1233 277.996,-44.6965 284.701,-46.7072"/>
</g>
<!-- padrino&#45;helpers&#45;&gt;tilt -->
<g id="edge51" class="edge"><title>padrino&#45;helpers&#45;&gt;tilt</title>
<path fill="none" stroke="black" d="M233.004,-293.483C190.048,-283.601 127.64,-268.392 74,-252 69.27,-250.555 64.3163,-248.91 59.4729,-247.227"/>
<polygon fill="black" stroke="black" points="60.388,-243.837 49.7934,-243.768 58.0327,-250.429 60.388,-243.837"/>
</g>
<!-- padrino&#45;helpers&#45;&gt;i18n -->
<g id="edge52" class="edge"><title>padrino&#45;helpers&#45;&gt;i18n</title>
<path fill="none" stroke="black" d="M557,-161C564.55,-148.139 564.862,-131.522 563.14,-117.707"/>
<polygon fill="black" stroke="black" points="566.587,-117.097 561.513,-107.796 559.679,-118.231 566.587,-117.097"/>
<path fill="none" stroke="black" d="M290.741,-287.961C298.548,-267.518 314.533,-233.781 340,-216 421.402,-159.166 506.737,-248.616 557,-163"/>
</g>
<!-- padrino&#45;support -->
<g id="node41" class="node"><title>padrino&#45;support</title>
<ellipse fill="none" stroke="black" cx="166" cy="-234" rx="72.0999" ry="18"/>
<text text-anchor="middle" x="166" y="-229.8" font-family="Arial, Helvetica, SansSerif" font-size="14.00">padrino&#45;support</text>
</g>
<!-- padrino&#45;helpers&#45;&gt;padrino&#45;support -->
<g id="edge50" class="edge"><title>padrino&#45;helpers&#45;&gt;padrino&#45;support</title>
<path fill="none" stroke="black" d="M258.294,-289.291C241.722,-279.542 220.213,-266.89 202.129,-256.252"/>
<polygon fill="black" stroke="black" points="203.422,-252.953 193.029,-250.899 199.873,-258.986 203.422,-252.953"/>
</g>
<!-- listen&#45;&gt;rb&#45;fsevent -->
<g id="edge53" class="edge"><title>listen&#45;&gt;rb&#45;fsevent</title>
<path fill="none" stroke="black" d="M1632.26,-293.284C1652.63,-282.563 1683.13,-266.51 1706.97,-253.964"/>
<polygon fill="black" stroke="black" points="1708.85,-256.928 1716.07,-249.173 1705.59,-250.734 1708.85,-256.928"/>
</g>
<!-- listen&#45;&gt;rb&#45;inotify -->
<g id="edge54" class="edge"><title>listen&#45;&gt;rb&#45;inotify</title>
<path fill="none" stroke="black" d="M1610,-287.697C1610,-279.983 1610,-270.712 1610,-262.112"/>
<polygon fill="black" stroke="black" points="1613.5,-262.104 1610,-252.104 1606.5,-262.104 1613.5,-262.104"/>
</g>
<!-- sprockets&#45;&gt;rack -->
<g id="edge57" class="edge"><title>sprockets&#45;&gt;rack</title>
<path fill="none" stroke="black" d="M455.244,-288.089C468.72,-267.446 494.434,-233.174 526,-216 574.325,-189.708 735.296,-172.676 808.809,-166.084"/>
<polygon fill="black" stroke="black" points="809.342,-169.551 818.996,-165.188 808.728,-162.578 809.342,-169.551"/>
</g>
<!-- sprockets&#45;&gt;tilt -->
<g id="edge58" class="edge"><title>sprockets&#45;&gt;tilt</title>
<path fill="none" stroke="black" d="M407.419,-294.702C397.575,-292.253 386.934,-289.824 377,-288 243.617,-263.505 205.96,-283.268 74,-252 69.1873,-250.86 64.1877,-249.384 59.323,-247.78"/>
<polygon fill="black" stroke="black" points="60.225,-244.387 49.6302,-244.37 57.9023,-250.99 60.225,-244.387"/>
</g>
<!-- hike -->
<g id="node42" class="node"><title>hike</title>
<ellipse fill="none" stroke="black" cx="387" cy="-234" rx="27" ry="18"/>
<text text-anchor="middle" x="387" y="-229.8" font-family="Arial, Helvetica, SansSerif" font-size="14.00">hike</text>
</g>
<!-- sprockets&#45;&gt;hike -->
<g id="edge55" class="edge"><title>sprockets&#45;&gt;hike</title>
<path fill="none" stroke="black" d="M431.255,-288.411C423.718,-279.314 414.258,-267.898 406.022,-257.958"/>
<polygon fill="black" stroke="black" points="408.536,-255.505 399.46,-250.038 403.145,-259.972 408.536,-255.505"/>
</g>
<!-- multi_json -->
<g id="node43" class="node"><title>multi_json</title>
<ellipse fill="none" stroke="black" cx="846" cy="-234" rx="49.8395" ry="18"/>
<text text-anchor="middle" x="846" y="-229.8" font-family="Arial, Helvetica, SansSerif" font-size="14.00">multi_json</text>
</g>
<!-- sprockets&#45;&gt;multi_json -->
<g id="edge56" class="edge"><title>sprockets&#45;&gt;multi_json</title>
<path fill="none" stroke="black" d="M487.534,-297.575C560.988,-284.753 711.474,-258.483 792.126,-244.404"/>
<polygon fill="black" stroke="black" points="792.831,-247.834 802.08,-242.667 791.627,-240.939 792.831,-247.834"/>
</g>
<!-- sprockets&#45;sass&#45;&gt;tilt -->
<g id="edge60" class="edge"><title>sprockets&#45;sass&#45;&gt;tilt</title>
<path fill="none" stroke="black" d="M255.81,-361.067C230.04,-345.834 189.251,-322.895 152,-307"/>
</g>
<!-- sprockets&#45;sass&#45;&gt;sprockets -->
<g id="edge59" class="edge"><title>sprockets&#45;sass&#45;&gt;sprockets</title>
<path fill="none" stroke="black" d="M316.17,-362.326C342.224,-351.137 378.155,-335.707 405.452,-323.984"/>
<polygon fill="black" stroke="black" points="406.91,-327.167 414.717,-320.005 404.147,-320.735 406.91,-327.167"/>
</g>
<!-- sprockets&#45;helpers&#45;&gt;sprockets -->
<g id="edge61" class="edge"><title>sprockets&#45;helpers&#45;&gt;sprockets</title>
<path fill="none" stroke="black" d="M464.706,-360.055C461.78,-352.176 458.229,-342.617 454.952,-333.794"/>
<polygon fill="black" stroke="black" points="458.179,-332.431 451.417,-324.275 451.617,-334.868 458.179,-332.431"/>
</g>
<!-- compass&#45;core&#45;&gt;sass -->
<g id="edge62" class="edge"><title>compass&#45;core&#45;&gt;sass</title>
<path fill="none" stroke="black" d="M1671.66,-368.205C1763.32,-353.721 1943.65,-325.228 2021.62,-312.907"/>
<polygon fill="black" stroke="black" points="2022.59,-316.297 2031.92,-311.279 2021.5,-309.383 2022.59,-316.297"/>
</g>
<!-- compass&#45;core&#45;&gt;multi_json -->
<g id="edge63" class="edge"><title>compass&#45;core&#45;&gt;multi_json</title>
<path fill="none" stroke="black" d="M1556.08,-370.421C1446.75,-358.291 1222.88,-332.837 1188,-324 1145.44,-313.218 1138.11,-300.422 1096,-288 1019,-265.289 997.434,-269.105 919,-252 911.663,-250.4 903.924,-248.657 896.337,-246.918"/>
<polygon fill="black" stroke="black" points="897.029,-243.485 886.498,-244.645 895.453,-250.306 897.029,-243.485"/>
</g>
<!-- ffi -->
<g id="node44" class="node"><title>ffi</title>
<ellipse fill="none" stroke="black" cx="1610" cy="-162" rx="27" ry="18"/>
<text text-anchor="middle" x="1610" y="-157.8" font-family="Arial, Helvetica, SansSerif" font-size="14.00">ffi</text>
</g>
<!-- rb&#45;inotify&#45;&gt;ffi -->
<g id="edge64" class="edge"><title>rb&#45;inotify&#45;&gt;ffi</title>
<path fill="none" stroke="black" d="M1610,-215.697C1610,-207.983 1610,-198.712 1610,-190.112"/>
<polygon fill="black" stroke="black" points="1613.5,-190.104 1610,-180.104 1606.5,-190.104 1613.5,-190.104"/>
</g>
<!-- mini_portile -->
<g id="node45" class="node"><title>mini_portile</title>
<ellipse fill="none" stroke="black" cx="1351" cy="-90" rx="55.1524" ry="18"/>
<text text-anchor="middle" x="1351" y="-85.8" font-family="Arial, Helvetica, SansSerif" font-size="14.00">mini_portile</text>
</g>
<!-- nokogiri&#45;&gt;mini_portile -->
<g id="edge65" class="edge"><title>nokogiri&#45;&gt;mini_portile</title>
<path fill="none" stroke="black" d="M1351,-143.697C1351,-135.983 1351,-126.712 1351,-118.112"/>
<polygon fill="black" stroke="black" points="1354.5,-118.104 1351,-108.104 1347.5,-118.104 1354.5,-118.104"/>
</g>
<!-- rack&#45;test&#45;&gt;rack -->
<g id="edge66" class="edge"><title>rack&#45;test&#45;&gt;rack</title>
<path fill="none" stroke="black" d="M1028.72,-222.216C988.249,-209.099 920.313,-187.083 879.665,-173.91"/>
<polygon fill="black" stroke="black" points="880.544,-170.516 869.952,-170.762 878.386,-177.175 880.544,-170.516"/>
</g>
<!-- xpath&#45;&gt;nokogiri -->
<g id="edge67" class="edge"><title>xpath&#45;&gt;nokogiri</title>
<path fill="none" stroke="black" d="M1398.46,-217.465C1390.6,-208.439 1380.52,-196.88 1371.68,-186.735"/>
<polygon fill="black" stroke="black" points="1374.13,-184.217 1364.92,-178.977 1368.85,-188.816 1374.13,-184.217"/>
</g>
<!-- tzinfo&#45;&gt;thread_safe -->
<g id="edge68" class="edge"><title>tzinfo&#45;&gt;thread_safe</title>
<path fill="none" stroke="black" d="M326.331,-72.7646C320.86,-64.4396 314.068,-54.1037 307.905,-44.7253"/>
<polygon fill="black" stroke="black" points="310.67,-42.5589 302.253,-36.1239 304.82,-46.4031 310.67,-42.5589"/>
</g>
<!-- padrino&#45;support&#45;&gt;activesupport -->
<g id="edge69" class="edge"><title>padrino&#45;support&#45;&gt;activesupport</title>
<path fill="none" stroke="black" d="M213.734,-220.485C260.043,-208.345 330.229,-189.944 378.658,-177.247"/>
<polygon fill="black" stroke="black" points="379.558,-180.629 388.343,-174.708 377.782,-173.858 379.558,-180.629"/>
</g>
</g>
</svg>
